<?xml version="1.0" encoding="UTF-8"?>
<svg width="22px" height="24px" viewBox="0 0 22 24" version="1.1" xmlns="http://www.w3.org/2000/svg" xmlns:xlink="http://www.w3.org/1999/xlink">
    <!-- Generator: Sketch 49.3 (51167) - http://www.bohemiancoding.com/sketch -->
    <title>exam</title>
    <desc>Created with Sketch.</desc>
    <defs></defs>
    <g id="Page-1" stroke="none" stroke-width="1" fill="none" fill-rule="evenodd">
        <g id="Notifications" transform="translate(-48.000000, -169.000000)" fill="#000000" fill-rule="nonzero">
            <g id="Aside-Section">
                <g id="Assessment" transform="translate(24.000000, 147.000000)">
                    <g id="exam" transform="translate(24.000000, 22.000000)">
                        <polygon id="Shape" points="12.3333333 7.66666667 12.3333333 7 11.6666667 7 11.6666667 7.66666667 11 7.66666667 11 8.33333333 11.6666667 8.33333333 11.6666667 9 12.3333333 9 12.3333333 8.33333333 13 8.33333333 13 7.66666667"></polygon>
                        <path d="M9.37695273,6.27611695 C9.31522621,6.10920481 9.16595658,5.99989027 9,6.00000019 C8.83404342,5.99983531 8.68477379,6.10920481 8.62304727,6.27611695 L7,10.6728808 L7.75390546,11 L8.13856766,9.95708762 L9.86143234,9.95708762 L10.2460945,11 L11,10.6728808 L9.37695273,6.27611695 Z M8.46317712,9.07773486 L9,7.62328539 L9.53682288,9.07773486 L8.46317712,9.07773486 Z" id="Shape"></path>
                        <path d="M10.5,4 C7.46714286,4 5,6.01885904 5,8.49998975 C5,10.9811205 7.46714286,12.9999795 10.5,12.9999795 C11.3566741,13.0021272 12.2060312,12.8355765 13.0032857,12.5090715 L12.711,11.7493914 C12.0068036,12.037493 11.2565938,12.1842541 10.5,12.1817995 C7.90046429,12.1817995 5.78571429,10.5298942 5.78571429,8.49998975 C5.78571429,6.47008528 7.90046429,4.81817995 10.5,4.81817995 C13.0995357,4.81817995 15.2142857,6.47008528 15.2142857,8.49998975 C15.1909598,9.39093658 14.8090536,10.2305938 14.1618214,10.8138027 L14.6953214,11.4143467 C15.5042634,10.6770643 15.9778527,9.61920879 16,8.49998975 C16,6.01885904 13.5328571,4 10.5,4 Z" id="Shape"></path>
                        <path d="M19.6,3.2 L18.4,3.2 L18.4,2 C18.4,1.7791 18.2209,1.6 18,1.6 L6.4,1.6 L6.4,1.4 C6.4,0.6268 5.7732,0 5,0 C4.2268,0 3.6,0.6268 3.6,1.4 L3.6,1.6 L2.8,1.6 C2.5791,1.6 2.4,1.7791 2.4,2 L2.4,19.2 L0.4,19.2 C0.1791,19.2 0,19.3791 0,19.6 L0,20.8 C0,21.68365 0.71635,22.4 1.6,22.4 L4,22.4 L4,23.6 C4,23.8209 4.1791,24 4.4,24 L19.6,24 C19.8209,24 20,23.8209 20,23.6 L20,3.6 C20,3.3791 19.8209,3.2 19.6,3.2 Z M4.4,1.4 C4.4,1.06865 4.66865,0.8 5,0.8 C5.33135,0.8 5.6,1.06865 5.6,1.4 L5.6,1.6 L4.4,1.6 L4.4,1.4 Z M3.2,2.4 L5.6,2.4 L5.6,3.6 C5.6,3.8209 5.4209,4 5.2,4 C4.9791,4 4.8,3.8209 4.8,3.6 L4.8,3.2 L4,3.2 L4,3.6 C4,4.26275 4.53725,4.8 5.2,4.8 C5.86275,4.8 6.4,4.26275 6.4,3.6 L6.4,2.4 L17.6,2.4 L17.6,20.8 C17.6,21.24185 17.24185,21.6 16.8,21.6 C16.35815,21.6 16,21.24185 16,20.8 L16,19.6 C16,19.3791 15.8209,19.2 15.6,19.2 L3.2,19.2 L3.2,2.4 Z M1.6,21.6 C1.15815,21.6 0.8,21.24185 0.8,20.8 L0.8,20 L15.2,20 L15.2,20.8 C15.19955,21.08095 15.2737,21.35705 15.4148,21.6 L1.6,21.6 Z M19.2,23.2 L4.8,23.2 L4.8,22.4 L16.8,22.4 C17.68365,22.4 18.4,21.68365 18.4,20.8 L18.4,4 L19.2,4 L19.2,23.2 Z" id="Shape"></path>
                        <rect id="Rectangle-path" x="6" y="14" width="1" height="1"></rect>
                        <rect id="Rectangle-path" x="8" y="14" width="9" height="1"></rect>
                        <rect id="Rectangle-path" x="4" y="16" width="12" height="1"></rect>
                        <rect id="Rectangle-path" x="4" y="17" width="11" height="1"></rect>
                        <rect id="Rectangle-path" x="21" y="17" width="1" height="5"></rect>
                        <rect id="Rectangle-path" x="21" y="23" width="1" height="1"></rect>
                        <rect id="Rectangle-path" x="1" y="6" width="1" height="5"></rect>
                        <rect id="Rectangle-path" x="1" y="4" width="1" height="1"></rect>
                    </g>
                </g>
            </g>
        </g>
    </g>
</svg>