<?xml version="1.0" encoding="UTF-8"?>
<svg width="24px" height="16px" viewBox="0 0 24 16" version="1.1" xmlns="http://www.w3.org/2000/svg" xmlns:xlink="http://www.w3.org/1999/xlink">
    <!-- Generator: Sketch 49.3 (51167) - http://www.bohemiancoding.com/sketch -->
    <title>megaphone</title>
    <desc>Created with Sketch.</desc>
    <defs></defs>
    <g id="Page-1" stroke="none" stroke-width="1" fill="none" fill-rule="evenodd">
        <g id="Notifications" transform="translate(-48.000000, -106.000000)" fill="#000000" fill-rule="nonzero">
            <g id="Aside-Section">
                <g id="Notification" transform="translate(24.000000, 80.000000)">
                    <g id="megaphone" transform="translate(24.000000, 26.000000)">
                        <path d="M16.4347826,0 C15.5715652,0 14.8695652,0.7176 14.8695652,1.6 L14.8695652,2.1068 L2.72152174,6.0204 C2.63386957,5.334 2.06452174,4.8 1.36956522,4.8 C0.614347826,4.8 0,5.428 0,6.2 L0,9.8 C0,10.572 0.614347826,11.2 1.36956522,11.2 C2.06452174,11.2 2.63386957,10.666 2.72152174,9.9796 L3.55656522,10.2484 C3.43291304,10.3868 3.33391304,10.5516 3.27365217,10.7412 C3.04747826,11.4544 3.43095652,12.2232 4.12943478,12.4544 L8.59617391,13.9336 L8.59656522,13.9336 C8.73234783,13.9784 8.86969565,14 9.00508696,14 C9.5666087,14 10.0897826,13.6332 10.2721304,13.0584 C10.3390435,12.8464 10.3468696,12.6312 10.314,12.4248 L14.8695652,13.8932 L14.8695652,14.4 C14.8695652,15.2824 15.5715652,16 16.4347826,16 C17.298,16 18,15.2824 18,14.4 L18,1.6 C18,0.7176 17.298,0 16.4347826,0 Z M9.52747826,12.8124 C9.43434783,13.1064 9.12443478,13.2684 8.83721739,13.1728 L4.37047826,11.6936 C4.08286957,11.5984 3.9243913,11.282 4.01791304,10.988 C4.11143478,10.6944 4.42056522,10.5332 4.70778261,10.628 L9.17530435,12.1072 C9.46252174,12.2024 9.62021739,12.5188 9.52747826,12.8124 Z M1.95652174,9.8 C1.95652174,10.1308 1.69317391,10.4 1.36956522,10.4 C1.04595652,10.4 0.782608696,10.1308 0.782608696,9.8 L0.782608696,6.2 C0.782608696,5.8692 1.04595652,5.6 1.36956522,5.6 C1.69317391,5.6 1.95652174,5.8692 1.95652174,6.2 L1.95652174,6.2668 L1.95652174,9.7332 L1.95652174,9.8 Z M2.73913043,9.1464 L2.73913043,6.8536 L14.8695652,2.9452 L14.8695652,13.0544 L2.73913043,9.1464 Z M17.2173913,14.4 C17.2173913,14.8412 16.8663913,15.2 16.4347826,15.2 C16.0031739,15.2 15.6521739,14.8412 15.6521739,14.4 L15.6521739,14.1452 L15.6521739,1.8548 L15.6521739,1.6 C15.6521739,1.1588 16.0031739,0.8 16.4347826,0.8 C16.8663913,0.8 17.2173913,1.1588 17.2173913,1.6 L17.2173913,14.4 Z" id="Shape"></path>
                        <path d="M21.6666667,8 L21.3333333,8 C21.149,8 21,8.2235 21,8.5 C21,8.7765 21.149,9 21.3333333,9 L21.6666667,9 C21.851,9 22,8.7765 22,8.5 C22,8.2235 21.851,8 21.6666667,8 Z" id="Shape"></path>
                        <path d="M20.3333333,9 L20.6666667,9 C20.851,9 21,8.7765 21,8.5 C21,8.2235 20.851,8 20.6666667,8 L20.3333333,8 C20.149,8 20,8.2235 20,8.5 C20,8.7765 20.149,9 20.3333333,9 Z" id="Shape"></path>
                        <path d="M23.6666667,8 L23.3333333,8 C23.149,8 23,8.2235 23,8.5 C23,8.7765 23.149,9 23.3333333,9 L23.6666667,9 C23.851,9 24,8.7765 24,8.5 C24,8.2235 23.851,8 23.6666667,8 Z" id="Shape"></path>
                        <path d="M21.3694367,3 C21.4639889,3 21.5585411,2.9638009 21.6305633,2.89177209 L21.8916898,2.63062148 C22.0361034,2.48619448 22.0361034,2.25274725 21.8916898,2.10832025 C21.7472761,1.96389325 21.5138504,1.96389325 21.3694367,2.10832025 L21.1083102,2.36947087 C20.9638966,2.51389787 20.9638966,2.74734509 21.1083102,2.89177209 C21.1803324,2.9638009 21.2748846,3 21.3694367,3 Z" id="Shape"></path>
                        <path d="M22.3694367,1 C22.4639889,1 22.5585411,0.963800905 22.6305633,0.891772093 L22.8916898,0.630621479 C23.0361034,0.486194478 23.0361034,0.252747253 22.8916898,0.108320251 C22.7472761,-0.0361067504 22.5138504,-0.0361067504 22.3694367,0.108320251 L22.1083102,0.369470865 C21.9638966,0.513897867 21.9638966,0.747345092 22.1083102,0.891772093 C22.1807018,0.963800905 22.2748846,1 22.3694367,1 Z" id="Shape"></path>
                        <path d="M20.3694367,4 C20.4639889,4 20.5585411,3.9638009 20.6305633,3.89177209 L20.8916898,3.63062148 C21.0361034,3.48619448 21.0361034,3.25274725 20.8916898,3.10832025 C20.7472761,2.96389325 20.5138504,2.96389325 20.3694367,3.10832025 L20.1083102,3.36947087 C19.9638966,3.51389787 19.9638966,3.74734509 20.1083102,3.89177209 C20.1803324,3.96417028 20.2748846,4 20.3694367,4 Z" id="Shape"></path>
                        <path d="M20.5536038,5.0225108 L20.2319811,5.15888457 C20.0542065,5.23440802 19.9581946,5.47867243 20.0175659,5.70481121 C20.0650629,5.88563592 20.1970368,6 20.3391886,6 C20.3744721,6 20.4111127,5.99266344 20.4463962,5.97755875 L20.7680189,5.84118498 C20.9457935,5.76566153 21.0418054,5.52139712 20.9824341,5.29525834 C20.9230628,5.06911956 20.7310391,4.94655579 20.5536038,5.0225108 Z" id="Shape"></path>
                        <path d="M21.3394127,6 C21.3746843,6 21.4113124,5.99266344 21.446584,5.97755875 L21.7680976,5.84118498 C21.9458119,5.76566153 22.0417912,5.52139712 21.9824401,5.29525834 C21.9230889,5.06911956 21.7314695,4.94655579 21.553416,5.0225108 L21.2319024,5.15888457 C21.0541881,5.23440802 20.9582088,5.47867243 21.0175599,5.70481121 C21.0650409,5.88563592 21.1973091,6 21.3394127,6 Z" id="Shape"></path>
                        <path d="M23.0173948,4.70415713 C23.064877,4.88554984 23.1971489,5 23.3392564,5 C23.3745289,5 23.4108188,4.99265791 23.4460913,4.97797374 L23.7676138,4.84192921 C23.9453329,4.76634891 24.041654,4.52190064 23.9826404,4.29559164 C23.9232876,4.06928264 23.7309846,3.94749039 23.5536046,4.02177502 L23.2320822,4.15781956 C23.0543631,4.23383174 22.9583812,4.47828001 23.0173948,4.70415713 Z" id="Shape"></path>
                        <path d="M22.6305633,15.1083203 C22.4861496,14.9638932 22.2527239,14.9638932 22.1083102,15.1083203 C21.9638966,15.2527473 21.9638966,15.4861945 22.1083102,15.6306215 L22.3694367,15.8917721 C22.4418283,15.9638009 22.5360111,16 22.6305633,16 C22.7251154,16 22.8196676,15.9638009 22.8916898,15.8917721 C23.0361034,15.7473451 23.0361034,15.5138979 22.8916898,15.3694709 L22.6305633,15.1083203 Z" id="Shape"></path>
                        <path d="M21.6305633,13.1083203 C21.4861496,12.9638932 21.2527239,12.9638932 21.1083102,13.1083203 C20.9638966,13.2527473 20.9638966,13.4861945 21.1083102,13.6306215 L21.3694367,13.8917721 C21.4414589,13.9638009 21.5360111,14 21.6305633,14 C21.7251154,14 21.8196676,13.9638009 21.8916898,13.8917721 C22.0361034,13.7473451 22.0361034,13.5138979 21.8916898,13.3694709 L21.6305633,13.1083203 Z" id="Shape"></path>
                        <path d="M20.6305633,12.1083203 C20.4861496,11.9638932 20.2527239,11.9638932 20.1083102,12.1083203 C19.9638966,12.2527473 19.9638966,12.4861945 20.1083102,12.6306215 L20.3694367,12.8917721 C20.4414589,12.9638009 20.5360111,13 20.6305633,13 C20.7251154,13 20.8196676,12.9638009 20.8916898,12.8917721 C21.0361034,12.7473451 21.0361034,12.5138979 20.8916898,12.3694709 L20.6305633,12.1083203 Z" id="Shape"></path>
                        <path d="M21.2322318,10.8412114 L21.5537358,10.9775625 C21.5890063,10.9926647 21.6256333,11 21.6609038,11 C21.8030032,11 21.9352675,10.8856549 21.9824078,10.7048603 C22.0417572,10.4791905 21.9461199,10.2345352 21.7680718,10.1590243 L21.4465678,10.0226732 C21.2695371,9.94629935 21.076906,10.0692742 21.0175567,10.2953754 C20.9582073,10.5214766 21.0541837,10.7657005 21.2322318,10.8412114 Z" id="Shape"></path>
                        <path d="M20.7683385,10.1590243 L20.4467377,10.0226732 C20.2693145,9.94629935 20.0769647,10.0692742 20.0175975,10.2953754 C19.9582303,10.5214766 20.0538963,10.7657005 20.231998,10.8412114 L20.5535988,10.9775625 C20.5888798,10.9926647 20.6255179,11 20.660799,11 C20.8029411,11 20.9352452,10.8856549 20.9823998,10.7048603 C21.041767,10.4787591 20.9461009,10.2345352 20.7683385,10.1590243 Z" id="Shape"></path>
                        <path d="M23.7679253,11.1579935 L23.4464133,11.021977 C23.2693782,10.9472759 23.0764032,11.069043 23.0173915,11.2957371 C22.9583798,11.5215676 23.0543586,11.7663972 23.2324111,11.8419618 L23.5539231,11.9779783 C23.5891945,11.9926594 23.6254833,12 23.6607546,12 C23.8028575,12 23.9354643,11.8855735 23.9826058,11.7042182 C24.0416175,11.4779559 23.9456387,11.2335581 23.7679253,11.1579935 Z" id="Shape"></path>
                    </g>
                </g>
            </g>
        </g>
    </g>
</svg>