<?xml version="1.0" encoding="UTF-8"?>
<svg width="17px" height="24px" viewBox="0 0 17 24" version="1.1" xmlns="http://www.w3.org/2000/svg" xmlns:xlink="http://www.w3.org/1999/xlink">
    <!-- Generator: Sketch 49.3 (51167) - http://www.bohemiancoding.com/sketch -->
    <title>reading</title>
    <desc>Created with Sketch.</desc>
    <defs></defs>
    <g id="Page-1" stroke="none" stroke-width="1" fill="none" fill-rule="evenodd">
        <g id="Notifications" transform="translate(-48.000000, -236.000000)" fill="#000000" fill-rule="nonzero">
            <g id="Aside-Section">
                <g id="Student" transform="translate(24.000000, 214.000000)">
                    <g id="reading" transform="translate(24.000000, 22.000000)">
                        <path d="M15.8409091,15.8520476 L15.8409091,13.3536102 L14.7872955,13.7638303 L14.7842045,13.7568708 L14.7590909,13.7112479 C14.3553409,13.0821922 13.7023864,12.6445211 12.9671364,12.5111319 L10.4318182,12.0494893 L10.4318182,11.8492122 C11.3799545,11.2982569 12.07425,10.3583465 12.2906136,9.24715662 C12.9930227,9.10178174 13.5227273,8.478139 13.5227273,7.73270612 L13.5227273,3.91390921 C13.5227273,2.83481007 12.8164545,1.89373973 11.7918182,1.58752457 L11.5986364,1.39420691 C10.6999545,0.494893192 9.50531818,0 8.23456818,0 C5.61154545,0 3.47727273,2.1353868 3.47727273,4.76064053 L3.47727273,7.73270612 C3.47727273,8.478139 4.00697727,9.10178174 4.70938636,9.24715662 C4.92613636,10.3583465 5.62004545,11.2986436 6.56818182,11.8492122 L6.56818182,12.0494893 L4.03325,12.5107452 C3.29877273,12.6441344 2.64620455,13.0810323 2.24206818,13.7097013 L2.21888636,13.7661501 L1.15909091,13.3536102 L1.15909091,15.8520476 C0.520045455,15.8520476 0,16.3724587 0,17.0119535 L0,18.5584947 C0,19.1979895 0.520045455,19.7184006 1.15909091,19.7184006 L1.15909091,21.1427651 L8.5,24 L15.8409091,21.1427651 L15.8409091,19.7184006 C16.4799545,19.7184006 17,19.1979895 17,18.5584947 L17,17.0119535 C17,16.3724587 16.4799545,15.8520476 15.8409091,15.8520476 Z M11.1558636,12.9673615 L12.8288182,13.2716435 C13.3214318,13.3613429 13.7576364,13.6459065 14.0485682,14.0511003 L10.3105,15.5056223 L11.1558636,12.9673615 Z M7.37375,12.2037568 C7.73036364,12.312788 8.10822727,12.3723298 8.5,12.3723298 C8.89177273,12.3723298 9.26963636,12.312788 9.62625,12.2037568 L8.5,13.0489416 L7.37375,12.2037568 Z M7.91195455,13.5739923 L7.12338636,14.3627284 L6.61184091,12.8273996 L6.85795455,12.7829365 L7.91195455,13.5739923 Z M10.1420455,12.7833231 L10.3881591,12.8277862 L9.87661364,14.363115 L9.08804545,13.574379 L10.1420455,12.7833231 Z M12.3636364,8.39849212 L12.3636364,7.06692013 C12.5935227,7.20108258 12.75,7.4477559 12.75,7.73270612 C12.75,8.01765635 12.5935227,8.26432967 12.3636364,8.39849212 Z M4.63636364,8.39849212 C4.40647727,8.26432967 4.25,8.01765635 4.25,7.73270612 C4.25,7.4477559 4.40647727,7.20108258 4.63636364,7.06692013 L4.63636364,8.39849212 Z M4.63636364,5.79952959 L4.63636364,6.24106711 C4.49881818,6.2770242 4.36977273,6.33115314 4.25,6.40113413 L4.25,4.76064053 C4.25,2.56223217 6.03731818,0.773270612 8.23456818,0.773270612 C9.29861364,0.773270612 10.2996818,1.1881303 11.0523182,1.94129587 L11.3930909,2.28269485 L11.4970227,2.30821278 C12.2349773,2.49263782 12.75,3.15301092 12.75,3.91390921 L12.75,6.40113413 C12.6302273,6.33115314 12.5011818,6.27663756 12.3636364,6.24106711 L12.3636364,5.79952959 L11.1384773,5.79952959 C10.0914318,5.79952959 9.09075,5.29922351 8.46290909,4.4613848 L8.15575,4.0507781 L7.38804545,4.81940909 C6.75595455,5.45155782 5.916,5.79952959 5.02272727,5.79952959 L4.63636364,5.79952959 Z M5.40909091,8.50597674 L5.40909091,6.55501498 C6.36302273,6.4664755 7.24818182,6.05238908 7.93436364,5.36611142 L8.08465909,5.21571028 C8.85931818,6.07133421 9.97513636,6.57280021 11.1384773,6.57280021 L11.5909091,6.57280021 L11.5909091,8.50597674 C11.5909091,10.2114251 10.20425,11.5990592 8.5,11.5990592 C6.79575,11.5990592 5.40909091,10.2114251 5.40909091,8.50597674 Z M4.17118182,13.2716435 L5.84413636,12.9673615 L6.6895,15.5056223 L2.95065909,14.0507137 C3.24159091,13.6451332 3.67856818,13.3613429 4.17118182,13.2716435 Z M0.772727273,18.5584947 L0.772727273,17.0119535 C0.772727273,16.7985308 0.946204545,16.6253182 1.15909091,16.6253182 C1.79813636,16.6253182 2.31818182,17.1457293 2.31818182,17.7852241 C2.31818182,18.4247189 1.79813636,18.94513 1.15909091,18.94513 C0.946204545,18.94513 0.772727273,18.7719174 0.772727273,18.5584947 Z M8.11363636,23.0194929 L1.93181818,20.6142346 L1.93181818,19.5544672 C2.61297727,19.2552115 3.09090909,18.5758933 3.09090909,17.7852241 C3.09090909,16.9945549 2.61297727,16.3152367 1.93181818,16.0159809 L1.93181818,14.4841318 L8.11363636,16.8897767 L8.11363636,23.0194929 Z M6.96652273,15.6138802 L8.5,14.078938 L10.0334773,15.6134936 L8.5,16.2104585 L6.96652273,15.6138802 Z M15.0681818,20.613848 L8.88636364,23.0191062 L8.88636364,16.8897767 L15.0681818,14.4841318 L15.0681818,16.0159809 C14.3870227,16.3152367 13.9090909,16.9945549 13.9090909,17.7852241 C13.9090909,18.5758933 14.3870227,19.2552115 15.0681818,19.5544672 L15.0681818,20.613848 Z M16.2272727,18.5584947 C16.2272727,18.7719174 16.0537955,18.94513 15.8409091,18.94513 C15.2018636,18.94513 14.6818182,18.4247189 14.6818182,17.7852241 C14.6818182,17.1457293 15.2018636,16.6253182 15.8409091,16.6253182 C16.0537955,16.6253182 16.2272727,16.7985308 16.2272727,17.0119535 L16.2272727,18.5584947 Z" id="Shape"></path>
                    </g>
                </g>
            </g>
        </g>
    </g>
</svg>